<svg width="182" height="154" viewBox="0 0 182 154" fill="none" xmlns="http://www.w3.org/2000/svg">
<path d="M157.882 23.2052C145.742 10.5281 129.532 2.49117 112.068 0.490352C94.6038 -1.51047 76.9883 2.65121 62.2813 12.2525C47.4349 20.0883 35.6252 32.6264 28.7129 47.8915C22.7359 48.2029 18.3527 50.1142 15.7034 53.5933C13.5479 53.7059 11.4379 54.2542 9.50143 55.2048C7.56497 56.1554 5.84249 57.4886 4.43859 59.1233C1.52545 62.3914 -0.057135 66.6274 0.00157695 70.9993C0.00157695 75.7132 1.80007 79.2782 5.3863 81.6083C5.98727 83.9512 7.30006 86.0515 9.14483 87.6215C11.3294 89.6398 14.2006 90.7565 17.1788 90.7462C19.1206 90.7577 21.0585 90.5706 22.962 90.1879C25.9157 109.462 36.2655 126.838 51.8264 138.646C67.3872 150.455 86.9414 155.773 106.361 153.477C121.533 153.528 136.368 149.012 148.926 140.521C161.483 132.031 171.179 119.959 176.744 105.886C182.31 91.8121 183.488 76.3915 180.122 61.6402C176.757 46.8889 169.005 33.4933 157.882 23.2052ZM156.966 24.1286C164.094 31.5254 169.596 40.3237 173.12 49.9611C176.643 59.5985 178.112 69.863 177.43 80.0983C176.749 90.3336 173.934 100.315 169.164 109.403C164.394 118.492 157.775 126.489 149.729 132.882C159.891 123.139 167.109 110.75 170.564 97.122C174.019 83.4942 173.572 69.1735 169.274 55.7862C164.976 42.3989 156.999 30.4815 146.25 21.3874C135.5 12.2932 122.408 6.38677 108.461 4.33874C111.163 4.41059 113.859 4.62565 116.538 4.98302C131.679 7.02964 145.808 13.7204 156.966 24.1286ZM31.6099 86.8806C32.5921 95.3861 35.0328 103.66 38.8254 111.341C34.6607 103.949 31.8045 95.8955 30.3822 87.5356C30.8022 87.3316 31.2007 87.1061 31.6099 86.8806ZM32.8376 86.2686H32.7299C37.0285 83.7516 40.6473 80.2281 43.2732 76.0032C43.5947 75.583 43.876 75.1336 44.1132 74.6609H55.8196C51.5118 82.7036 46.7194 87.5464 41.6362 89.0819L40.9578 89.2644C40.7747 89.3288 40.6778 89.5006 40.6778 89.8013C40.6778 89.8979 40.6778 90.2308 41.2162 90.2308H41.3024C42.4468 89.9415 43.6398 89.8976 44.8025 90.102C45.7609 90.1771 46.4394 90.2201 46.8163 90.2201C50.9841 90.2201 55.055 88.0725 58.9535 84.0351C58.8959 84.4981 58.8707 84.9645 58.8781 85.431C58.8781 87.439 59.6212 88.4483 61.0858 88.4483C62.0982 88.4483 63.3582 87.6967 64.9305 86.1397L66.7613 84.0995C66.6051 84.7247 66.5256 85.3665 66.5244 86.0108C66.5244 88.0296 67.6014 88.4483 68.4198 88.4483C70.4553 88.4483 73.3738 85.5599 77.3369 79.5896L77.4339 79.45C81.4078 73.8771 82.9694 72.6852 83.5617 72.6852C83.8848 72.6852 84.2078 72.7711 84.2078 73.4261C84.2078 73.92 83.6263 75.3482 80.8693 79.3212C79.0385 81.9412 76.96 84.8189 74.7092 87.9114L74.3107 88.4483L74.9569 88.1477C75.416 88.0008 75.8965 87.9319 76.3785 87.9437C77.24 87.9437 77.4554 88.0618 77.5416 88.1155L77.7139 88.2658L77.8431 88.0725C79.7278 85.2914 81.4293 82.9506 82.8724 81.1359C84.1971 79.7507 85.1879 78.7521 85.8771 78.1185C85.8195 78.4017 85.7835 78.6889 85.7694 78.9776C85.7694 80.9318 86.534 81.9305 88.0525 81.9305C88.9895 81.9305 89.9803 81.211 91.0572 79.7829L91.1757 79.6218L91.2834 79.4715C95.2681 73.9308 96.8296 72.7389 97.4327 72.7389C97.745 72.7389 98.0789 72.8248 98.0789 73.4798C98.0789 74.2959 97.0019 76.2716 94.7404 79.3534C92.3926 82.5747 90.2603 85.5599 88.5802 87.8685L88.1818 88.4054L88.8064 88.1692C89.35 87.9821 89.9222 87.8912 90.4972 87.9007C90.8212 87.8812 91.1427 87.9679 91.4126 88.1477L91.5741 88.2658L91.6926 88.1047C94.1768 84.7187 96.4958 81.5367 98.6497 78.5588C101.493 74.6824 103.711 72.7174 105.241 72.7174C105.531 72.7174 105.876 72.814 105.876 73.5335C105.876 73.963 105.262 75.3482 102.344 79.4715C99.8307 83.0508 97.8635 85.8426 96.4419 87.847L96.0542 88.4054L96.6896 88.1477C97.2021 87.9558 97.747 87.8647 98.2943 87.8792C98.6706 87.8438 99.0483 87.9304 99.3712 88.1262L99.5328 88.2443L99.6512 88.0725C102.634 83.6915 104.885 80.4701 106.328 78.5051C109.128 74.6717 111.368 72.7174 112.973 72.7174C113.425 72.7174 113.619 72.9214 113.619 73.3939C113.41 74.3691 112.906 75.2572 112.176 75.9387C110.755 77.6353 109.516 79.1601 108.407 80.5131C107.105 82.0541 106.379 83.9965 106.35 86.0108C106.35 88.0296 107.427 88.4483 108.245 88.4483C109.882 88.4483 112.111 86.6122 114.998 82.9184C114.814 83.6925 114.72 84.4851 114.718 85.2807C114.718 87.4282 115.482 88.4483 117.001 88.4483C119.155 88.4483 121.729 86.5155 124.539 82.6928C124.882 82.8346 125.246 82.9181 125.616 82.9398C127.221 82.9398 128.847 81.866 130.301 79.7185L130.43 79.5467C134.48 73.8556 136.052 72.653 136.655 72.653C136.967 72.653 137.29 72.7389 137.29 73.3939C137.29 74.0489 136.709 75.4341 133.963 79.2889C131.378 82.8861 129.31 85.7317 127.792 87.8792L127.404 88.4161L128.029 88.1799C128.569 87.9928 129.137 87.9019 129.709 87.9114C130.033 87.8886 130.356 87.9756 130.624 88.1584L130.786 88.2765L130.915 88.1155C133.378 84.7295 135.689 81.5367 137.85 78.5373C140.65 74.7039 142.869 72.7496 144.431 72.7496C144.883 72.7496 145.077 72.9536 145.077 73.4261C144.867 74.4014 144.364 75.2894 143.634 75.971C142.427 77.4206 141.178 78.9561 139.929 80.5453C138.648 82.0981 137.924 84.0331 137.872 86.0431C137.872 88.0618 138.863 88.4806 139.703 88.4806C141.76 88.4806 144.732 85.635 148.771 79.7829L148.9 79.5789C152.712 73.8449 154.414 72.6422 155.157 72.6422C155.609 72.6422 155.803 72.8355 155.803 73.308C155.644 74.3082 155.159 75.2286 154.425 75.928C153.132 77.4206 151.84 78.9883 150.591 80.5775C149.354 82.0961 148.674 83.9901 148.663 85.9464C148.663 87.9651 149.654 88.3839 150.483 88.3839C151.721 88.3839 153.358 87.3101 155.448 84.98C154.399 86.7124 153.455 88.3338 152.615 89.8443C149.288 91.3556 146.257 93.4464 143.666 96.0185C140.435 99.1325 138.744 101.753 138.744 103.782C138.744 105.564 139.735 105.93 140.564 105.93C141.706 105.93 143.224 105.017 145.206 103.148C147.388 101.03 149.324 98.6748 150.978 96.1259C152.605 93.7314 154.005 91.6267 155.157 89.8657C157.555 88.9992 159.782 87.7199 161.737 86.086C163.951 84.1799 165.912 82.0005 167.574 79.6003L167.671 79.45L166.982 78.8057L166.853 79.0098C165.269 81.4093 163.359 83.5776 161.177 85.4525C159.623 86.8455 157.823 87.9379 155.868 88.6738C160.876 80.5453 164.483 75.0475 166.465 72.3416L166.702 72.0194H163.471L163.417 72.1053C162.34 73.6516 160.574 76.2931 158.291 79.9762C157.182 81.7108 155.905 83.3328 154.478 84.8189C152.755 86.6659 151.452 87.6 150.601 87.6C150.246 87.6 149.837 87.5034 149.837 86.7088C150.032 85.6493 150.56 84.6791 151.345 83.9384C153.703 81.2003 154.931 79.7614 155.308 79.2997C156.573 77.9019 157.332 76.1209 157.462 74.2422C157.462 72.2127 156.255 71.7939 155.243 71.7939C153.875 71.7939 151.603 74.124 148.308 78.9024L148.178 79.1064C144.344 84.7653 141.544 87.6967 139.854 87.6967C139.315 87.6967 139.078 87.4497 139.078 86.8806C139.257 85.7937 139.786 84.7946 140.586 84.0351C141.846 82.5855 143.192 81.007 144.581 79.3641C145.857 77.9914 146.598 76.2089 146.671 74.3388C146.671 72.3093 145.497 71.8906 144.517 71.8906C143.063 71.8906 140.995 73.4368 138.217 76.6152C138.438 75.9203 138.554 75.1966 138.561 74.4677C138.561 72.3845 137.57 71.9443 136.741 71.9443C135.912 71.9443 134.652 72.7496 133.209 74.414C132.649 75.1334 131.518 76.6797 129.763 79.1064L129.698 79.203C128.276 81.1681 126.93 82.1667 125.713 82.1667C125.52 82.1766 125.327 82.1512 125.142 82.0915C127.296 78.7198 128.438 76.0246 128.438 74.1026C128.438 72.1805 127.447 71.8691 126.618 71.8691C124.238 71.8691 121.675 73.3294 119.015 76.1642C118 77.1555 117.1 78.2578 116.333 79.45C112.661 84.8189 109.936 87.5464 108.256 87.5464C107.761 87.5464 107.545 87.2994 107.545 86.7303C107.724 85.6434 108.253 84.6443 109.053 83.8848C111.465 81.0929 112.801 79.5896 113.016 79.2353C114.246 77.7859 114.968 75.9764 115.073 74.0811C115.073 72.1161 113.899 71.708 112.919 71.708C111.325 71.708 109.301 73.2113 106.748 76.2931C106.967 75.6273 107.084 74.9321 107.093 74.2314C107.093 72.1483 106.016 71.708 105.208 71.708C103.787 71.708 101.741 73.2543 98.9728 76.4327C99.1902 75.7373 99.3027 75.0135 99.3066 74.2851C99.3066 72.202 98.3158 71.7617 97.4866 71.7617C96.6573 71.7617 95.3973 72.5671 93.9542 74.2314C93.3726 74.9723 92.1665 76.6367 90.4434 79.0205C89.2264 80.6634 88.4618 81.007 88.0418 81.007C87.6218 81.007 86.6848 81.007 86.6848 79.0312C86.6488 78.3773 86.7862 77.7255 87.0833 77.1414C89.6033 75.3589 90.831 73.92 90.831 72.5778C90.8474 72.4682 90.8389 72.3563 90.8062 72.2504C90.7734 72.1445 90.7173 72.0472 90.6418 71.9658C90.5664 71.8844 90.4736 71.8209 90.3703 71.78C90.267 71.7391 90.1558 71.7219 90.0449 71.7295C89.2803 71.7295 88.5156 72.2664 87.7079 73.3724C87.0056 74.2855 86.5229 75.3472 86.2971 76.4756C85.5217 77.238 84.854 77.8716 84.294 78.387C84.9515 77.0996 85.3433 75.6939 85.4463 74.2529C85.4463 72.1698 84.4555 71.7295 83.6263 71.7295C82.7971 71.7295 81.537 72.5348 80.0939 74.1992C79.5339 74.9294 78.3816 76.4971 76.5831 78.9883L76.4862 79.1386C72.8892 84.6364 70.2076 87.4282 68.5383 87.4282C67.9998 87.4282 67.7629 87.1813 67.7629 86.6122C67.7889 85.9643 68.0103 85.3393 68.3983 84.8189C72.4476 78.6984 75.3554 74.4891 77.0139 72.2879L77.4877 71.6651L76.7662 71.9872C76.3419 72.1718 75.8828 72.2634 75.42 72.2557C75.0453 72.2583 74.6757 72.1699 74.343 71.9979L74.1384 71.9335L73.1261 73.469C73.1264 73.2402 73.08 73.0138 72.9897 72.8034C72.8994 72.5931 72.767 72.4033 72.6008 72.2455C72.4346 72.0878 72.2378 71.9655 72.0227 71.886C71.8075 71.8065 71.5783 71.7715 71.3491 71.7832C68.8399 71.7832 66.169 73.1684 63.4228 75.8958C61.5101 77.6477 60.0916 79.8692 59.3089 82.3385C58.1684 83.7004 56.8869 84.9385 55.4857 86.0323C53.08 88.0202 50.0793 89.1536 46.9563 89.2537C46.4717 89.2537 45.7609 89.2537 44.8025 89.1356C44.404 89.1141 44.0163 89.1141 43.7255 89.1141C47.7006 87.3762 51.2995 84.8855 54.3226 81.7801C57.0219 78.7587 59.307 75.3934 61.1182 71.7725L66.7829 60.5514C71.2307 52.4765 75.8831 48.3854 80.6001 48.3854C81.0739 48.3854 81.0739 48.5572 81.0739 48.6216C81.0739 48.6861 81.0739 48.7398 80.7509 49.0619C80.4911 49.3267 80.3411 49.6795 80.3308 50.0498C80.3103 50.2462 80.3353 50.4446 80.4039 50.6299C80.4725 50.8151 80.5828 50.9821 80.7265 51.1181C80.8701 51.254 81.0431 51.3552 81.2322 51.4139C81.4213 51.4726 81.6214 51.4871 81.817 51.4564C82.7432 51.4564 83.8417 51.0484 83.8417 49.1585C83.8417 48.3102 83.4001 47.3116 81.2786 47.3116C76.1846 47.3116 70.8968 50.984 65.5767 58.2428C62.1996 63.1254 59.1454 68.2224 56.4335 73.5013H44.6517C45.4271 71.9657 46.6548 69.1202 48.2918 65.0183C49.2388 62.4389 50.4629 59.9692 51.9426 57.6522C52.6888 58.2212 53.3458 58.898 53.8919 59.6602H53.9565C54.2365 59.832 54.3334 59.8427 54.398 59.8427C54.4626 59.8427 54.7965 59.8427 54.7965 59.338C54.8033 59.1831 54.7738 59.0286 54.7103 58.887V58.8226C53.9242 58.028 53.2242 57.3837 52.6211 56.8791C53.194 56.1267 53.8203 55.4162 54.495 54.753C55.5719 53.7329 56.6488 52.8201 57.6073 51.9504C59.2443 50.3719 60.0304 49.2659 60.0304 48.5465C60.0304 48.074 59.7935 47.8056 59.3627 47.8056C57.6719 47.8056 55.055 50.5008 51.5441 56.02C48.8854 53.9585 45.9939 52.2143 42.9286 50.8229C41.4542 50.1515 39.9401 49.5705 38.3946 49.0834C43.5415 37.1865 51.724 26.8412 62.1274 19.0776C72.5308 11.3139 84.7923 6.40263 97.6912 4.83269C100.965 4.83841 104.235 5.05722 107.481 5.48769C122.457 7.51293 136.454 14.057 147.594 24.2416C158.733 34.4263 166.482 47.7644 169.8 62.4661C173.118 77.1678 171.847 92.5297 166.157 106.49C160.468 120.451 150.632 132.343 137.969 140.57C124.39 147.729 108.911 150.491 93.6838 148.473C78.4571 146.454 64.2398 139.754 53.0088 129.306C41.7297 117.556 34.6415 102.433 32.8376 86.2686ZM60.2566 86.5155C60.2566 84.4968 61.7751 81.6513 64.7582 78.0541C67.7414 74.4569 69.9706 72.6852 71.4137 72.6852C72.0384 72.6852 72.3184 72.9966 72.3184 73.759C72.2062 74.657 71.8568 75.5093 71.3061 76.2287C70.4445 77.5387 68.9583 79.6111 66.9013 82.3815C64.4028 85.7424 62.4751 87.4497 61.1612 87.4497C60.5797 87.4712 60.2997 87.1705 60.2566 86.5155ZM123.506 82.0271C120.91 85.6887 118.724 87.5464 117.044 87.5464C116.333 87.5464 115.967 87.1705 115.967 86.3759C115.967 84.776 117.442 82.0808 120.275 78.2903C123.107 74.4999 125.153 72.653 126.499 72.653C126.887 72.653 127.404 72.7711 127.404 73.8234C127.178 75.5738 126.552 77.249 125.573 78.7198C125.387 78.5705 125.156 78.4874 124.916 78.4836C124.109 78.4836 123.15 78.8809 123.15 80.7815C123.127 81.2245 123.252 81.6628 123.506 82.0271ZM151.851 91.412C148.404 97.2319 145.648 101.173 143.655 103.116C142.406 104.33 141.361 104.942 140.554 104.942C140.22 104.942 139.843 104.856 139.843 104.136C139.843 102.311 141.307 99.9486 144.151 97.0923C146.414 94.8214 149.011 92.9061 151.851 91.412ZM103.13 1.34288C112.129 1.33727 121.053 2.97496 129.461 6.17492C115.903 1.86026 101.396 1.46561 87.6218 5.0367C80.1364 6.02887 72.8452 8.14682 65.9967 11.3183C77.2697 4.77253 90.0844 1.32999 103.13 1.34288ZM62.9382 13.3693C70.4933 9.38344 78.6846 6.73486 87.1479 5.54138C76.0805 8.50562 65.8316 13.9342 57.1725 21.4185C48.5133 28.9028 41.6695 38.2479 37.1562 48.7505C36.2515 48.5035 35.3577 48.3102 34.4746 48.1599C40.1171 33.9022 50.0635 21.7448 62.9382 13.3693ZM51.178 21.0576C43.284 28.6186 37.139 37.8054 33.1715 47.9774C32.2991 47.8766 31.4219 47.8228 30.5437 47.8163H30.156C34.9889 37.3929 42.1856 28.2323 51.178 21.0576ZM31.0176 49.7921C38.2609 49.8442 45.2797 52.3042 50.9626 56.7824C44.9425 61.6252 38.9762 64.8143 33.2145 66.2639C32.6976 62.3017 30.3176 59.7568 26.139 58.7474C25.2736 57.1908 24.0041 55.8949 22.4636 54.9957C20.9232 54.0964 19.1685 53.6269 17.3835 53.6362C20.1189 51.0699 24.7067 49.7921 31.0176 49.7921ZM26.8929 60.3796C28.3357 60.6892 29.6371 61.4616 30.5979 62.5785C31.5587 63.6955 32.126 65.0956 32.213 66.5646C30.64 66.8882 29.0374 67.0465 27.4313 67.0371H27.0221C27.2958 66.0289 27.4334 64.989 27.4313 63.9446C27.4604 62.7341 27.2782 61.5278 26.8929 60.3796ZM26.4944 63.7405C26.4619 64.8345 26.277 65.9187 25.9452 66.9619C21.002 66.6505 17.6419 64.911 15.9511 61.797C18.3272 60.5439 20.9741 59.8878 23.662 59.8857C24.3421 59.8859 25.0204 59.9543 25.6867 60.0897C26.2461 61.2243 26.5232 62.4766 26.4944 63.7405ZM16.005 55.1503H16.9742C18.4054 55.0709 19.8365 55.309 21.1642 55.8475C22.492 56.386 23.6835 57.2114 24.6528 58.2642H23.4467C20.6283 58.2119 17.8401 58.8497 15.3265 60.1219C15.1879 59.5563 15.1227 58.9753 15.1326 58.3931C15.143 57.2675 15.4394 56.1628 15.9942 55.1825L16.005 55.1503ZM5.05245 80.1802C3.73166 79.1115 2.67896 77.7505 1.97791 76.2053C1.27687 74.6601 0.946797 72.9732 1.0139 71.2785C0.973814 67.323 2.4137 63.4946 5.05245 60.5407C7.50267 57.6132 10.9576 55.6994 14.7449 55.1717C14.3004 56.1536 14.0727 57.2192 14.0772 58.2965C14.0739 59.0512 14.1754 59.8029 14.3788 60.5299C11.3517 62.2521 8.88455 64.8052 7.27095 67.8854C5.66473 70.8164 4.82056 74.102 4.81552 77.442C4.8189 78.3597 4.89814 79.2755 5.05245 80.1802ZM5.80631 77.4206C5.84552 74.3741 6.73694 71.399 8.3802 68.8303C10.0062 66.1354 12.2737 63.8819 14.9819 62.2695C16.8127 65.7807 20.3666 67.735 25.579 68.0894C25.108 69.4275 24.3377 70.6412 23.3263 71.6385C22.315 72.6357 21.0892 73.3902 19.742 73.8449C19.4311 73.9292 19.1143 73.9902 18.7943 74.0274C18.6327 74.0274 18.245 74.1455 18.245 74.7576C18.245 75.3696 19.0312 75.2193 19.2573 75.2193C20.9662 74.7209 22.5265 73.8123 23.8013 72.573C25.0762 71.3337 26.0268 69.8015 26.5698 68.1108H26.839C28.6478 68.108 30.4517 67.9245 32.2237 67.5632C32.1884 69.7849 31.6336 71.9678 30.6034 73.9381C29.5733 75.9085 28.0962 77.612 26.2898 78.9131C22.8678 81.6182 18.6273 83.0869 14.2603 83.0794C10.6095 83.0794 7.87404 82.3492 6.11862 80.9318C5.87843 79.7774 5.77362 78.5991 5.80631 77.4206ZM17.0281 89.7476C14.4385 89.7453 11.9385 88.8025 9.99562 87.0954C8.44339 85.8503 7.26273 84.2052 6.58171 82.3385C8.93282 83.6095 11.5892 84.2113 14.2603 84.078C18.8395 84.06 23.2816 82.5181 26.8821 79.697C31.1899 76.4756 33.3438 72.3416 33.3438 67.5632V67.3377C39.2323 65.7783 44.7182 62.9812 49.4333 59.134C45.2655 65.0076 41.9593 69.5605 39.6008 72.6852C35.293 78.9883 31.7607 83.3049 29.0898 85.5706C25.6961 88.3501 21.4191 89.8312 17.0281 89.7476ZM87.4387 151.973C71.5933 149.792 56.879 142.564 45.489 131.366C34.099 120.168 26.6432 105.6 24.2328 89.8335C25.923 89.3971 27.573 88.8188 29.1652 88.1047C32.0178 104.256 40.066 119.043 52.0934 130.229C63.6552 142.31 78.9355 150.19 95.505 152.618C92.8067 152.545 90.1141 152.33 87.4387 151.973ZM106.576 151.759C97.576 151.76 88.6519 150.119 80.2447 146.916C98.2134 152.637 117.682 151.418 134.792 143.501C129.021 146.856 122.818 149.41 116.355 151.093C113.113 151.527 109.847 151.749 106.576 151.759ZM179.981 88.2121C177.764 104.153 170.403 118.941 159.009 130.34C147.615 141.739 132.809 149.13 116.828 151.394C124.561 149.343 131.919 146.081 138.626 141.73C155.992 132.625 169.108 117.123 175.182 98.5215C181.257 79.9202 179.81 59.6895 171.15 42.136C179.064 56.1198 182.166 72.3039 179.981 88.2121Z" fill="white"/>
<path d="M74.494 117.73C75.1088 118.337 75.8418 118.812 76.6479 119.126C77.4979 119.476 78.41 119.651 79.3295 119.641C80.3584 119.655 81.3739 119.408 82.2803 118.922C82.6743 118.716 83.0369 118.456 83.3573 118.149C83.6604 117.875 83.9281 117.565 84.1542 117.225L83.0773 116.581C82.675 117.213 82.0993 117.716 81.4188 118.031C80.7428 118.337 80.0074 118.491 79.2649 118.482C78.4979 118.493 77.7374 118.34 77.0356 118.031C76.3966 117.743 75.8245 117.326 75.3556 116.807C74.8857 116.291 74.5201 115.689 74.2786 115.035C73.7752 113.647 73.7752 112.127 74.2786 110.74C74.5142 110.083 74.8805 109.48 75.3556 108.968C75.8451 108.446 76.4447 108.039 77.111 107.776C77.8159 107.465 78.5803 107.311 79.351 107.325C79.7401 107.324 80.1276 107.375 80.5034 107.475C80.8452 107.568 81.1771 107.694 81.4942 107.851C81.7777 108.001 82.0417 108.185 82.2803 108.399C82.4836 108.581 82.6643 108.786 82.8188 109.011L83.8957 108.216C83.6658 107.895 83.3901 107.61 83.0773 107.368C82.7454 107.114 82.3838 106.901 82.0003 106.734C81.5838 106.54 81.1467 106.392 80.6972 106.294C80.2255 106.203 79.7452 106.163 79.2649 106.176C78.3531 106.164 77.4483 106.336 76.6048 106.681C75.8004 106.998 75.068 107.472 74.4509 108.077C73.8434 108.693 73.364 109.423 73.0401 110.224C72.3772 111.953 72.3772 113.865 73.0401 115.593C73.3767 116.395 73.8711 117.122 74.494 117.73Z" fill="white"/>
<path d="M93.663 118.15H87.6752V106.499H86.3721V119.309H93.663V118.15Z" fill="white"/>
<path d="M96.9262 106.499H95.623V119.309H96.9262V106.499Z" fill="white"/>
<path d="M101.655 108.292H101.687L109.172 119.309H110.798V106.499H109.495V117.409H109.462L101.978 106.499H100.352V119.309H101.655V108.292Z" fill="white"/>
<path d="M115.514 106.499H114.211V119.309H115.514V106.499Z" fill="white"/>
<path d="M120.188 117.731C120.804 118.336 121.537 118.811 122.342 119.126C123.196 119.475 124.111 119.65 125.034 119.642C125.575 119.646 126.114 119.581 126.639 119.449C127.103 119.326 127.551 119.149 127.974 118.922C128.366 118.713 128.728 118.453 129.051 118.149C129.351 117.876 129.615 117.565 129.837 117.226L128.825 116.582C128.417 117.212 127.838 117.715 127.156 118.031C126.48 118.337 125.744 118.491 125.002 118.482C124.238 118.494 123.481 118.34 122.783 118.031C122.144 117.744 121.572 117.327 121.103 116.807C120.63 116.293 120.264 115.691 120.027 115.035C119.777 114.347 119.653 113.62 119.66 112.888C119.656 112.157 119.776 111.431 120.016 110.74C120.256 110.085 120.622 109.484 121.093 108.968C121.562 108.449 122.134 108.032 122.773 107.744C123.478 107.436 124.242 107.282 125.013 107.293C125.402 107.292 125.789 107.343 126.165 107.444C126.507 107.536 126.839 107.662 127.156 107.819C127.441 107.967 127.705 108.151 127.942 108.367C128.148 108.546 128.329 108.752 128.48 108.979L129.557 108.185C129.331 107.864 129.059 107.578 128.75 107.336C128.416 107.085 128.055 106.873 127.673 106.703C127.266 106.517 126.84 106.376 126.402 106.284C125.045 106.012 123.639 106.139 122.353 106.649C121.554 106.964 120.828 107.439 120.22 108.045C119.612 108.651 119.136 109.374 118.82 110.171C118.473 111.031 118.301 111.95 118.314 112.877C118.303 113.799 118.471 114.714 118.81 115.572C119.121 116.376 119.59 117.109 120.188 117.731Z" fill="white"/>
<path d="M95.6341 43.5H94.3311V56.3103H95.6341V43.5Z" fill="white"/>
<path d="M108.202 54.4097H108.159L100.685 43.5H99.0479V56.3103H100.351V45.2932H100.394L107.868 56.3103H109.505V43.5H108.202V54.4097Z" fill="white"/>
</svg>
