<svg width="161" height="40" viewBox="0 0 161 40" fill="none" xmlns="http://www.w3.org/2000/svg">
<g opacity="0.4">
<path d="M14.0344 20.0638H5.95253L4.74266 23.4709H0L7.88831 1.89258H12.0986L19.9869 23.4709H15.2443L14.0344 20.0638ZM7.50114 15.7914H12.4858L10.1628 9.30168L10.0177 8.59862H9.96927L9.82409 9.30168L7.50114 15.7914Z" fill="white"/>
<path d="M19.8418 1.18945H24.2457V23.5249H19.8418V1.18945Z" fill="white"/>
<path d="M25.0684 15.3051C25.0684 14.1153 25.2619 12.9796 25.6491 11.898C26.0362 10.8163 26.617 9.89696 27.3429 9.13983C28.0688 8.38269 28.9399 7.73372 29.9078 7.24699C30.9241 6.81434 31.9888 6.54395 33.1986 6.54395C34.4085 6.54395 35.5215 6.76026 36.5378 7.24699C37.5541 7.73372 38.4252 8.32861 39.1511 9.13983C39.877 9.95104 40.4578 10.8704 40.8449 11.898C41.2321 12.9796 41.4257 14.1153 41.4257 15.3051C41.4257 15.6295 41.4257 15.9 41.3773 16.1163C41.3773 16.3326 41.3289 16.4949 41.2805 16.7112H29.5206C29.6174 17.252 29.811 17.6846 30.053 18.1173C30.2949 18.5499 30.5853 18.8744 30.9241 19.1448C31.2628 19.4152 31.6016 19.6856 31.9888 19.7938C32.3759 19.956 32.7631 20.0101 33.1986 20.0101C33.8761 20.0101 34.5053 19.8479 34.9892 19.5234C35.5215 19.1989 35.9087 18.7663 36.1507 18.2795H40.8933C40.6997 18.9826 40.361 19.6856 39.877 20.3887C39.4415 21.0917 38.8608 21.6866 38.2316 22.2274C37.6025 22.7683 36.8282 23.2009 35.9571 23.5254C35.086 23.8499 34.1665 24.0121 33.1502 24.0121C31.9404 24.0121 30.8273 23.7958 29.8594 23.3091C28.8431 22.8764 28.0204 22.2274 27.2945 21.4162C26.5686 20.605 26.0363 19.6856 25.6007 18.6581C25.2619 17.6306 25.0684 16.4948 25.0684 15.3051ZM33.247 10.6541C32.4727 10.6541 31.7952 10.8704 31.1661 11.3572C30.5369 11.8439 30.1014 12.4388 29.811 13.25H36.7314C36.5862 12.8714 36.3926 12.4929 36.1507 12.1684C35.9087 11.8439 35.6667 11.5735 35.328 11.3572C35.0376 11.1408 34.6988 10.9786 34.3601 10.8163C33.9729 10.7082 33.6342 10.6541 33.247 10.6541Z" fill="white"/>
<path d="M45.4434 18.3334C45.4918 18.8201 45.7337 19.2528 46.1209 19.5232C46.5564 19.8476 47.0888 19.9558 47.7179 19.9558C48.5406 19.9558 49.1697 19.8477 49.5085 19.5772C49.8956 19.3609 50.0408 18.9823 50.0408 18.5497C50.0408 18.2793 49.944 18.063 49.7988 17.9007C49.6053 17.7385 49.3633 17.5762 49.0245 17.4681C48.6858 17.3599 48.2986 17.2518 47.8147 17.1436C47.3307 17.0354 46.7984 16.9273 46.1209 16.765C45.8305 16.7109 45.5401 16.6028 45.2014 16.5487C44.8626 16.4405 44.5239 16.3324 44.1851 16.1701C43.8464 16.0079 43.5076 15.8456 43.2172 15.5752C42.9269 15.3589 42.6365 15.0885 42.3945 14.71C42.1526 14.3855 41.959 13.9528 41.8138 13.5202C41.6686 13.0334 41.6202 12.4926 41.6202 11.8436C41.6202 11.0324 41.7654 10.2753 42.0074 9.57226C42.2977 8.92328 42.6849 8.32839 43.2172 7.89574C43.7496 7.46309 44.4755 7.08453 45.2982 6.81412C46.1209 6.54372 47.0888 6.43555 48.2502 6.43555C49.1697 6.43555 49.9924 6.54372 50.7183 6.81412C51.4442 7.08453 52.0733 7.4631 52.6057 7.94983C53.138 8.43655 53.5252 9.03144 53.7671 9.68041C54.0575 10.3294 54.1543 11.0865 54.1543 11.8977H49.7504C49.702 11.5192 49.5569 11.1406 49.2181 10.8702C48.9277 10.5998 48.4438 10.4375 47.9114 10.4375C47.2339 10.4375 46.75 10.5998 46.4112 10.8702C46.0725 11.1406 45.9273 11.4651 45.9273 11.8436C45.9273 12.06 45.9757 12.2222 46.0725 12.3845C46.1693 12.5467 46.3628 12.6549 46.6048 12.763C46.8468 12.8712 47.1371 12.9253 47.4759 13.0334C47.8147 13.0875 48.2502 13.1957 48.7826 13.2498C49.5569 13.412 50.2828 13.5742 51.0087 13.7906C51.6862 14.0069 52.3153 14.2773 52.8477 14.6559C53.38 15.0344 53.8155 15.5212 54.1059 16.062C54.3963 16.6028 54.5898 17.414 54.5898 18.2793C54.5898 19.2527 54.3963 20.118 54.0575 20.8211C53.7187 21.5242 53.2348 22.119 52.6057 22.6058C51.9766 23.0925 51.2506 23.417 50.3796 23.6333C49.5085 23.8496 48.5406 23.9578 47.5243 23.9578C46.4112 23.9578 45.395 23.7956 44.6207 23.4711C43.8463 23.1466 43.1688 22.7139 42.6365 22.1731C42.1042 21.6323 41.717 21.0374 41.475 20.3344C41.2331 19.6313 41.0879 18.9823 41.0879 18.2793L45.4434 18.3334Z" fill="white"/>
<path d="M55.3643 1.18945H59.7681V14.0607L64.6559 7.08428H69.7857L64.8495 13.9526L70.2697 23.5249H65.0431L61.7039 17.1433L59.7681 19.6851V23.5249H55.3643V1.18945Z" fill="white"/>
<path d="M68.2852 15.3051C68.2852 14.1153 68.4787 12.9796 68.8659 11.898C69.253 10.8163 69.8338 9.89696 70.5597 9.13983C71.2856 8.38269 72.1567 7.73372 73.1246 7.24699C74.1409 6.81434 75.2056 6.54395 76.4154 6.54395C77.6253 6.54395 78.7383 6.76026 79.7546 7.24699C80.7709 7.73372 81.642 8.32861 82.3679 9.13983C83.0938 9.95104 83.6746 10.8704 84.0617 11.898C84.4489 12.9796 84.6425 14.1153 84.6425 15.3051C84.6425 15.6295 84.6425 15.9 84.5941 16.1163C84.5941 16.3326 84.5457 16.4949 84.4973 16.7112H72.7374C72.8342 17.252 73.0278 17.6846 73.2698 18.1173C73.5118 18.5499 73.8021 18.8744 74.1409 19.1448C74.4796 19.4152 74.8184 19.6856 75.2056 19.7938C75.5927 19.956 75.9799 20.0101 76.4154 20.0101C77.0929 20.0101 77.7221 19.8479 78.206 19.5234C78.7383 19.1989 79.1255 18.7663 79.3675 18.2795H84.1101C83.9165 18.9826 83.5778 19.6856 83.0938 20.3887C82.6583 21.0917 82.0776 21.6866 81.4484 22.2274C80.8193 22.7683 80.045 23.2009 79.1739 23.5254C78.3028 23.8499 77.3833 24.0121 76.367 24.0121C75.1572 24.0121 74.0441 23.7958 73.0762 23.3091C72.0599 22.8764 71.2372 22.2274 70.5113 21.4162C69.7854 20.605 69.253 19.6856 68.8175 18.6581C68.4787 17.6306 68.2852 16.4948 68.2852 15.3051ZM76.4638 10.6541C75.6895 10.6541 75.012 10.8704 74.3828 11.3572C73.7537 11.8439 73.3182 12.4388 73.0278 13.25H79.9482C79.803 12.8714 79.6094 12.4929 79.3675 12.1684C79.1255 11.8439 78.8835 11.5735 78.5448 11.3572C78.2544 11.1408 77.9156 10.9786 77.5769 10.8163C77.2381 10.7082 76.851 10.6541 76.4638 10.6541Z" fill="white"/>
<path d="M95.4827 11.3036H93.6437C92.4338 11.3036 91.5143 11.6822 90.8368 12.4394C90.1592 13.1965 89.8204 14.3322 89.8204 15.8464V23.4719H85.4648V7.03125H88.9977L89.3365 8.5996C89.8204 8.16695 90.4012 7.78838 91.0787 7.46389C91.7563 7.19349 92.5306 7.03125 93.4501 7.03125H95.5311V11.3036H95.4827Z" fill="white"/>
<path d="M94.9014 15.3051C94.9014 14.1153 95.095 12.9796 95.4821 11.898C95.8693 10.8163 96.45 9.89696 97.1759 9.13983C97.9019 8.38269 98.773 7.73372 99.7409 7.24699C100.709 6.76026 101.87 6.54395 103.08 6.54395C104.29 6.54395 105.403 6.76026 106.419 7.24699C107.436 7.73372 108.307 8.32861 109.033 9.13983C109.759 9.95104 110.339 10.8704 110.727 11.898C111.114 12.9255 111.307 14.1153 111.307 15.3051C111.307 16.4948 111.114 17.6306 110.727 18.7122C110.339 19.7938 109.759 20.7132 109.033 21.4703C108.307 22.2274 107.436 22.8764 106.419 23.3631C105.403 23.8499 104.29 24.0662 103.08 24.0662C101.87 24.0662 100.806 23.8499 99.7893 23.3631C98.773 22.8764 97.9503 22.2815 97.2243 21.4703C96.4984 20.6591 95.9661 19.7397 95.5305 18.7122C95.095 17.6846 94.9014 16.4948 94.9014 15.3051ZM99.2569 15.251C99.2569 15.954 99.3537 16.5489 99.5473 17.0897C99.7409 17.6306 100.031 18.1173 100.37 18.5499C100.709 18.9285 101.144 19.253 101.58 19.4693C102.064 19.6856 102.548 19.7938 103.08 19.7938C103.612 19.7938 104.096 19.6856 104.58 19.4693C105.064 19.253 105.451 18.9285 105.79 18.5499C106.129 18.1714 106.419 17.6846 106.613 17.0897C106.807 16.5489 106.903 15.9 106.903 15.1969C106.903 14.5479 106.807 13.899 106.613 13.3582C106.419 12.8173 106.129 12.3306 105.79 11.952C105.451 11.5735 105.064 11.249 104.58 11.0327C104.096 10.8163 103.612 10.7082 103.08 10.7082C102.548 10.7082 102.064 10.8163 101.58 11.0327C101.096 11.249 100.709 11.5735 100.37 11.952C100.031 12.3306 99.7409 12.8173 99.5473 13.3582C99.3537 13.899 99.2569 14.602 99.2569 15.251Z" fill="white"/>
<path d="M113.243 11.2488H110.533V7.03053H113.243V6.43564C113.243 5.6785 113.34 4.92138 113.485 4.16424C113.679 3.40711 113.969 2.70405 114.356 2.10916C114.792 1.51426 115.324 0.973461 116.002 0.594894C116.679 0.216327 117.55 0 118.615 0H121.567V4.00199H119.68C119.293 4.00199 118.954 4.05607 118.712 4.21831C118.47 4.32647 118.228 4.5428 118.083 4.75912C117.938 4.97545 117.792 5.24585 117.744 5.57034C117.696 5.89482 117.647 6.21932 117.647 6.54381V7.08461H121.567V11.3029H117.647V23.5252H113.243V11.2488Z" fill="white"/>
<path d="M123.116 11.2488H120.406V7.03053H123.116V6.43564C123.116 5.6785 123.213 4.92138 123.358 4.16424C123.552 3.40711 123.842 2.70405 124.229 2.10916C124.665 1.51426 125.197 0.973461 125.875 0.594894C126.552 0.216327 127.423 0 128.488 0H131.44V4.00199H129.553C129.166 4.00199 128.827 4.05607 128.585 4.21831C128.343 4.32647 128.101 4.5428 127.956 4.75912C127.811 4.97545 127.665 5.24585 127.617 5.57034C127.569 5.89482 127.52 6.21932 127.52 6.54381V7.08461H131.44V11.3029H127.52V23.5252H123.116V11.2488Z" fill="white"/>
<path d="M146.055 11.3036H144.216C143.006 11.3036 142.086 11.6822 141.409 12.4394C140.731 13.1965 140.393 14.3322 140.393 15.8464V23.4719H136.037V7.03125H139.57L139.909 8.5996C140.393 8.16695 140.973 7.78838 141.651 7.46389C142.328 7.19349 143.103 7.03125 144.022 7.03125H146.103V11.3036H146.055Z" fill="white"/>
<path d="M153.411 19.7938C153.895 19.7938 154.33 19.7397 154.718 19.5775C155.105 19.4152 155.444 19.1989 155.686 18.8744C155.976 18.5499 156.169 18.1173 156.315 17.5765C156.46 17.0356 156.557 16.3867 156.557 15.5754V6.97656H160.961V15.7377C160.961 17.252 160.767 18.4958 160.38 19.5234C159.993 20.5509 159.46 21.4162 158.783 22.0652C158.105 22.7141 157.331 23.2009 156.411 23.4713C155.492 23.7417 154.476 23.9039 153.411 23.9039C152.346 23.9039 151.33 23.7417 150.41 23.4713C149.491 23.2009 148.717 22.7141 148.039 22.0652C147.362 21.4162 146.829 20.5509 146.442 19.5234C146.055 18.4958 145.861 17.1979 145.861 15.7377V6.97656H150.265V15.5754C150.265 16.3326 150.314 17.0356 150.459 17.5224C150.604 18.0632 150.798 18.4958 151.088 18.8203C151.378 19.1448 151.669 19.3611 152.056 19.5234C152.491 19.7397 152.927 19.7938 153.411 19.7938Z" fill="white"/>
<path d="M133.956 18.6045H129.601V23.4718H133.956V18.6045Z" fill="white"/>
<path d="M85.5498 34.6466C85.5498 34.2139 85.5982 33.8354 85.7434 33.4568C85.8886 33.0783 86.0338 32.7538 86.2758 32.4834C86.5177 32.2129 86.8081 31.9966 87.0985 31.8344C87.4373 31.6721 87.8244 31.6181 88.2116 31.6181C88.502 31.6181 88.7924 31.6721 89.0344 31.7803C89.2764 31.8885 89.4699 31.9966 89.6635 32.1589V29.7793H91.1638V37.4588H89.8571L89.7603 36.9721C89.5667 37.1343 89.3248 37.2966 89.0828 37.4588C88.8408 37.6211 88.502 37.6751 88.2116 37.6751C87.7761 37.6751 87.4373 37.6211 87.0985 37.4588C86.7597 37.2966 86.4694 37.0802 86.2274 36.8098C85.9854 36.5394 85.7918 36.215 85.695 35.8364C85.5982 35.4578 85.5498 35.0792 85.5498 34.6466ZM87.0501 34.6466C87.0501 34.8629 87.0985 35.0793 87.1469 35.2956C87.1953 35.5119 87.2921 35.6741 87.4373 35.7823C87.5825 35.9445 87.6793 36.0527 87.8729 36.1068C88.0664 36.1609 88.2116 36.2149 88.4052 36.2149C88.5988 36.2149 88.744 36.1609 88.9376 36.1068C89.0828 36.0527 89.228 35.9445 89.3732 35.7823C89.5183 35.6201 89.6151 35.4578 89.6635 35.2956C89.7119 35.0793 89.7603 34.8629 89.7603 34.6466C89.7603 34.4303 89.7119 34.214 89.6635 33.9976C89.6151 33.7813 89.5183 33.6191 89.3732 33.5109C89.228 33.3486 89.1312 33.2946 88.9376 33.1864C88.7924 33.1323 88.5988 33.0782 88.4052 33.0782C88.2116 33.0782 88.018 33.1323 87.8729 33.1864C87.7277 33.2405 87.5825 33.3486 87.4373 33.5109C87.3405 33.6731 87.2437 33.8354 87.1469 33.9976C87.0985 34.214 87.0501 34.4303 87.0501 34.6466Z" fill="white"/>
<path d="M93.3898 31.834H91.8896V37.5125H93.3898V31.834Z" fill="white"/>
<path d="M93.873 34.6457C93.873 34.2131 93.9214 33.8345 94.0666 33.456C94.2118 33.0774 94.357 32.7529 94.599 32.4825C94.841 32.2121 95.1314 31.9958 95.4701 31.8335C95.8089 31.6713 96.1961 31.6172 96.5833 31.6172C96.7768 31.6172 96.922 31.6172 97.0672 31.6713C97.2124 31.7254 97.3576 31.7794 97.5028 31.8335C97.648 31.8876 97.7448 31.9417 97.89 32.0498C97.9868 32.1039 98.1319 32.2121 98.1803 32.3203L98.2771 31.8335H99.4871V37.0794C99.4871 37.512 99.4387 37.8906 99.2935 38.2692C99.1483 38.6477 99.0031 38.9181 98.7611 39.1885C98.5191 39.4589 98.2287 39.6212 97.89 39.7834C97.5512 39.9457 97.164 39.9997 96.7284 39.9997C96.4381 39.9997 96.1477 39.9457 95.9057 39.8916C95.6637 39.8375 95.4217 39.7293 95.2765 39.6212C95.1314 39.513 94.9378 39.4049 94.7926 39.2426C94.6474 39.0804 94.5506 38.9181 94.4538 38.7559C94.357 38.5936 94.3086 38.4314 94.2602 38.2151C94.2118 37.9988 94.1634 37.8365 94.1634 37.6743H95.6153C95.6637 37.7824 95.7121 37.8906 95.7605 37.9988C95.8089 38.1069 95.9057 38.161 96.0025 38.2692C96.0993 38.3773 96.1961 38.3773 96.3413 38.4314C96.4865 38.4855 96.6317 38.4855 96.7768 38.4855C97.0188 38.4855 97.2608 38.4314 97.406 38.3232C97.5512 38.2151 97.6964 38.1069 97.7932 37.9447C97.89 37.7824 97.9384 37.6743 97.9868 37.512C98.0352 37.3498 98.0352 37.1875 98.0352 37.0794V36.9171C97.8416 37.0794 97.5996 37.2416 97.3576 37.3498C97.1156 37.4579 96.7768 37.512 96.4381 37.512C96.0509 37.512 95.7121 37.4579 95.3733 37.2957C95.0346 37.1334 94.7926 36.9712 94.5506 36.7008C94.3086 36.4304 94.1634 36.1059 94.0182 35.7814C93.9214 35.4569 93.873 35.0784 93.873 34.6457ZM95.3733 34.6457C95.3733 34.8621 95.4217 35.0784 95.4701 35.2947C95.5185 35.511 95.6153 35.6733 95.7605 35.7814C95.9057 35.9437 96.0025 35.9978 96.1961 36.1059C96.3413 36.16 96.5349 36.2141 96.7284 36.2141C96.922 36.2141 97.0672 36.16 97.2608 36.1059C97.406 36.0518 97.5512 35.9437 97.6964 35.7814C97.7932 35.6192 97.89 35.4569 97.9868 35.2947C98.0352 35.0784 98.0836 34.8621 98.0836 34.6457C98.0836 34.4294 98.0352 34.2131 97.9868 33.9968C97.9384 33.7804 97.8416 33.6182 97.6964 33.51C97.5512 33.3478 97.4544 33.2937 97.2608 33.1855C97.1156 33.1315 96.922 33.0774 96.7284 33.0774C96.5349 33.0774 96.3413 33.1315 96.1961 33.1855C96.0509 33.2396 95.9057 33.3478 95.7605 33.51C95.6637 33.6723 95.5669 33.8345 95.4701 33.9968C95.4217 34.2131 95.3733 34.4294 95.3733 34.6457Z" fill="white"/>
<path d="M101.714 31.834H100.214V37.5125H101.714V31.834Z" fill="white"/>
<path d="M103.165 30.2656H104.23V31.834H105.682V33.2942H104.23V35.2952C104.23 35.4574 104.23 35.6197 104.279 35.7278C104.327 35.836 104.375 35.9441 104.424 35.9982C104.472 36.0523 104.569 36.1064 104.666 36.1605C104.763 36.1605 104.859 36.2145 104.956 36.2145H105.779V37.6207H104.811C104.521 37.6207 104.279 37.5666 103.988 37.5125C103.698 37.4584 103.504 37.3503 103.311 37.188C103.117 37.0258 102.972 36.8094 102.875 36.4849C102.778 36.1605 102.73 35.7819 102.73 35.3493V33.3483H101.907V32.0503L102.682 31.7258L103.165 30.2656Z" fill="white"/>
<path d="M105.875 34.6457C105.875 34.2131 105.923 33.8345 106.069 33.456C106.214 33.0774 106.359 32.7529 106.601 32.4825C106.843 32.2121 107.133 31.9958 107.472 31.8335C107.811 31.6713 108.198 31.6172 108.585 31.6172C108.924 31.6172 109.214 31.6713 109.505 31.7794C109.795 31.8876 109.989 32.0498 110.182 32.2121L110.231 31.7794H111.537V37.4579H110.231L110.182 37.0253C109.989 37.1875 109.747 37.3498 109.505 37.4579C109.263 37.5661 108.924 37.6202 108.585 37.6202C108.15 37.6202 107.811 37.5661 107.472 37.4039C107.133 37.2416 106.843 37.0253 106.601 36.7549C106.359 36.4845 106.165 36.16 106.069 35.7814C105.923 35.4569 105.875 35.0784 105.875 34.6457ZM107.375 34.6457C107.375 34.862 107.424 35.0784 107.472 35.2947C107.52 35.511 107.617 35.6733 107.762 35.7814C107.908 35.9437 108.004 35.9978 108.198 36.1059C108.343 36.16 108.537 36.2141 108.73 36.2141C108.924 36.2141 109.069 36.16 109.263 36.1059C109.408 36.0518 109.553 35.9437 109.698 35.7814C109.843 35.6192 109.94 35.4569 109.989 35.2947C110.037 35.0784 110.085 34.862 110.085 34.6457C110.085 34.4294 110.037 34.2131 109.989 33.9968C109.94 33.7804 109.843 33.6182 109.698 33.51C109.553 33.3478 109.456 33.2937 109.263 33.1855C109.117 33.1315 108.924 33.0774 108.73 33.0774C108.537 33.0774 108.343 33.1315 108.198 33.1855C108.053 33.2396 107.908 33.3478 107.762 33.51C107.666 33.6723 107.569 33.8345 107.472 33.9968C107.424 34.2131 107.375 34.4294 107.375 34.6457Z" fill="white"/>
<path d="M112.215 29.7793H113.715V37.4588H112.215V29.7793Z" fill="white"/>
<path d="M116.087 28.5889H117.539V39.5673H116.087V28.5889Z" fill="white"/>
<path d="M125.572 34.6466C125.572 35.0792 125.524 35.4578 125.379 35.8364C125.234 36.2149 125.088 36.5394 124.846 36.8098C124.604 37.0802 124.314 37.2966 123.975 37.4588C123.637 37.621 123.249 37.6751 122.862 37.6751C122.717 37.6751 122.523 37.6751 122.378 37.621C122.233 37.567 122.088 37.567 121.943 37.4588C121.798 37.4047 121.701 37.3506 121.556 37.2425C121.459 37.1884 121.314 37.0802 121.265 37.0261L121.217 37.4588H119.91V29.7793H121.41V32.1589C121.604 31.9966 121.798 31.8885 122.04 31.7803C122.281 31.6721 122.572 31.618 122.862 31.618C123.298 31.618 123.637 31.6721 123.975 31.8344C124.314 31.9966 124.604 32.2129 124.798 32.4833C124.992 32.7538 125.185 33.0782 125.33 33.4568C125.475 33.8354 125.572 34.2139 125.572 34.6466ZM124.072 34.6466C124.072 34.4303 124.024 34.2139 123.975 33.9976C123.927 33.7813 123.83 33.619 123.685 33.5109C123.588 33.3486 123.443 33.2946 123.249 33.1864C123.104 33.1323 122.911 33.0782 122.717 33.0782C122.523 33.0782 122.378 33.1323 122.185 33.1864C122.04 33.2405 121.894 33.3486 121.749 33.5109C121.604 33.6731 121.507 33.8354 121.459 33.9976C121.41 34.2139 121.362 34.3762 121.362 34.6466C121.362 34.8629 121.41 35.0792 121.459 35.2956C121.507 35.5119 121.604 35.6741 121.749 35.7823C121.894 35.9445 121.991 35.9986 122.185 36.1068C122.378 36.2149 122.523 36.2149 122.717 36.2149C122.911 36.2149 123.056 36.1609 123.249 36.1068C123.443 36.0527 123.54 35.9445 123.685 35.7823C123.83 35.62 123.927 35.4578 123.975 35.2956C124.024 35.0792 124.072 34.8629 124.072 34.6466Z" fill="white"/>
<path d="M129.444 33.2942H128.815C128.379 33.2942 128.089 33.4023 127.847 33.6727C127.605 33.9431 127.508 34.3217 127.508 34.8625V37.5125H126.008V31.834H127.218L127.314 32.3748C127.46 32.2126 127.653 32.1044 127.895 31.9962C128.137 31.8881 128.379 31.834 128.718 31.834H129.444V33.2942Z" fill="white"/>
<path d="M129.348 34.6457C129.348 34.2131 129.396 33.8345 129.541 33.456C129.686 33.0774 129.832 32.7529 130.074 32.4825C130.316 32.2121 130.606 31.9958 130.945 31.8335C131.283 31.6713 131.671 31.6172 132.058 31.6172C132.396 31.6172 132.687 31.6713 132.977 31.7794C133.268 31.8876 133.461 32.0498 133.655 32.2121L133.703 31.7794H135.01V37.4579H133.703L133.655 37.0253C133.461 37.1875 133.219 37.3498 132.977 37.4579C132.735 37.5661 132.396 37.6202 132.058 37.6202C131.622 37.6202 131.283 37.5661 130.945 37.4039C130.606 37.2416 130.316 37.0253 130.074 36.7549C129.832 36.4845 129.638 36.16 129.541 35.7814C129.396 35.4569 129.348 35.0784 129.348 34.6457ZM130.848 34.6457C130.848 34.862 130.896 35.0784 130.945 35.2947C130.993 35.511 131.09 35.6733 131.235 35.7814C131.38 35.9437 131.477 35.9978 131.671 36.1059C131.816 36.16 132.009 36.2141 132.203 36.2141C132.396 36.2141 132.542 36.16 132.735 36.1059C132.88 36.0518 133.026 35.9437 133.171 35.7814C133.316 35.6192 133.413 35.4569 133.461 35.2947C133.51 35.0784 133.558 34.862 133.558 34.6457C133.558 34.4294 133.51 34.2131 133.461 33.9968C133.413 33.7804 133.316 33.6182 133.171 33.51C133.026 33.3478 132.929 33.2937 132.735 33.1855C132.59 33.1315 132.396 33.0774 132.203 33.0774C132.009 33.0774 131.816 33.1315 131.671 33.1855C131.525 33.2396 131.38 33.3478 131.235 33.51C131.138 33.6723 131.041 33.8345 130.945 33.9968C130.896 34.2131 130.848 34.4294 130.848 34.6457Z" fill="white"/>
<path d="M140.913 37.4585H139.413V34.4841C139.413 34.2137 139.364 33.9974 139.316 33.8351C139.268 33.6729 139.219 33.5106 139.122 33.4025C139.026 33.2943 138.929 33.2402 138.784 33.1862C138.639 33.1321 138.542 33.1321 138.397 33.1321C138.203 33.1321 138.058 33.1861 137.913 33.2402C137.767 33.2943 137.622 33.4025 137.525 33.5647C137.429 33.727 137.332 33.8892 137.284 34.0514C137.235 34.2678 137.187 34.43 137.187 34.6463V37.5126H135.687V31.8341H136.896L136.993 32.2668C137.09 32.2127 137.235 32.1045 137.332 32.0504C137.429 31.9964 137.574 31.8882 137.719 31.8341C137.864 31.78 138.009 31.726 138.155 31.726C138.3 31.6719 138.445 31.6719 138.59 31.6719C138.977 31.6719 139.364 31.726 139.655 31.8882C139.945 32.0504 140.187 32.2127 140.381 32.429C140.574 32.6453 140.72 32.9698 140.768 33.2943C140.865 33.6188 140.913 34.0514 140.913 34.4841V37.4585Z" fill="white"/>
<path d="M141.203 34.6466C141.203 34.2139 141.252 33.8354 141.397 33.4568C141.542 33.0782 141.687 32.7538 141.929 32.4833C142.171 32.2129 142.461 31.9966 142.752 31.8344C143.091 31.6721 143.478 31.618 143.865 31.618C144.155 31.618 144.446 31.6721 144.688 31.7803C144.93 31.8885 145.123 31.9966 145.317 32.1589V29.7793H146.817V37.4588H145.51L145.414 36.9721C145.22 37.1343 144.978 37.2966 144.736 37.4588C144.494 37.567 144.155 37.6751 143.865 37.6751C143.429 37.6751 143.091 37.621 142.752 37.4588C142.413 37.2966 142.123 37.0802 141.881 36.8098C141.639 36.5394 141.445 36.2149 141.348 35.8364C141.3 35.4578 141.203 35.0792 141.203 34.6466ZM142.752 34.6466C142.752 34.8629 142.8 35.0792 142.849 35.2956C142.897 35.5119 142.994 35.6741 143.139 35.7823C143.284 35.9445 143.381 36.0527 143.575 36.1068C143.72 36.1609 143.913 36.2149 144.107 36.2149C144.3 36.2149 144.446 36.1609 144.639 36.1068C144.833 36.0527 144.93 35.9445 145.075 35.7823C145.22 35.62 145.317 35.4578 145.365 35.2956C145.414 35.0792 145.462 34.8629 145.462 34.6466C145.462 34.4303 145.414 34.2139 145.365 33.9976C145.317 33.7813 145.22 33.619 145.075 33.5109C144.93 33.3486 144.833 33.2946 144.639 33.1864C144.446 33.0782 144.3 33.0782 144.107 33.0782C143.913 33.0782 143.72 33.1323 143.575 33.1864C143.429 33.2405 143.284 33.3486 143.139 33.5109C143.042 33.6731 142.945 33.8354 142.849 33.9976C142.752 34.2139 142.752 34.4303 142.752 34.6466Z" fill="white"/>
<path d="M149.092 31.834H147.592V37.5125H149.092V31.834Z" fill="white"/>
<path d="M155.093 37.4586H153.593V34.4841C153.593 34.2137 153.544 33.9974 153.496 33.8351C153.448 33.6729 153.399 33.5106 153.302 33.4025C153.206 33.2943 153.109 33.2402 152.964 33.1862C152.818 33.1321 152.722 33.1321 152.576 33.1321C152.383 33.1321 152.238 33.1861 152.092 33.2402C151.947 33.2943 151.802 33.4025 151.705 33.5647C151.608 33.727 151.512 33.8892 151.463 34.0514C151.415 34.2678 151.366 34.43 151.366 34.6463V37.5126H149.866V31.8341H151.076L151.173 32.2668C151.27 32.2127 151.415 32.1045 151.512 32.0504C151.608 31.9964 151.754 31.8882 151.899 31.8341C152.044 31.78 152.189 31.726 152.334 31.726C152.48 31.6719 152.625 31.6719 152.77 31.6719C153.157 31.6719 153.544 31.726 153.835 31.8882C154.125 32.0504 154.367 32.2127 154.561 32.429C154.754 32.6453 154.899 32.9698 154.948 33.2943C155.045 33.6188 155.093 34.0515 155.093 34.4841V37.4586Z" fill="white"/>
<path d="M155.383 34.6457C155.383 34.2131 155.431 33.8345 155.576 33.456C155.722 33.0774 155.867 32.7529 156.109 32.4825C156.351 32.2121 156.641 31.9958 156.98 31.8335C157.319 31.6713 157.706 31.6172 158.093 31.6172C158.287 31.6172 158.432 31.6172 158.577 31.6713C158.722 31.7254 158.867 31.7794 159.012 31.8335C159.158 31.8876 159.254 31.9417 159.4 32.0498C159.496 32.1039 159.642 32.2121 159.69 32.3203L159.787 31.8335H160.997V37.0794C160.997 37.512 160.948 37.8906 160.803 38.2692C160.658 38.6477 160.513 38.9181 160.271 39.1885C160.029 39.4589 159.738 39.6212 159.4 39.7834C159.061 39.9457 158.674 39.9997 158.238 39.9997C157.948 39.9997 157.657 39.9457 157.415 39.8916C157.173 39.8375 156.931 39.7293 156.786 39.6212C156.641 39.513 156.448 39.4049 156.302 39.2426C156.157 39.0804 156.06 38.9181 155.964 38.7559C155.867 38.5936 155.818 38.4314 155.77 38.2151C155.722 37.9988 155.673 37.8365 155.673 37.6743H157.125C157.173 37.7824 157.222 37.8906 157.27 37.9988C157.319 38.1069 157.415 38.161 157.512 38.2692C157.609 38.3773 157.706 38.3773 157.851 38.4314C157.996 38.4855 158.141 38.4855 158.287 38.4855C158.529 38.4855 158.771 38.4314 158.916 38.3232C159.061 38.2151 159.206 38.1069 159.303 37.9447C159.4 37.7824 159.448 37.6743 159.496 37.512C159.545 37.3498 159.545 37.1875 159.545 37.0794V36.9171C159.351 37.0794 159.109 37.2416 158.867 37.3498C158.625 37.4579 158.287 37.512 157.948 37.512C157.561 37.512 157.222 37.4579 156.883 37.2957C156.544 37.1334 156.302 36.9712 156.06 36.7008C155.818 36.4304 155.673 36.1059 155.528 35.7814C155.431 35.4569 155.383 35.0784 155.383 34.6457ZM156.883 34.6457C156.883 34.8621 156.931 35.0784 156.98 35.2947C157.028 35.511 157.125 35.6733 157.27 35.7814C157.415 35.9437 157.512 35.9978 157.706 36.1059C157.851 36.16 158.045 36.2141 158.238 36.2141C158.432 36.2141 158.577 36.16 158.77 36.1059C158.916 36.0518 159.061 35.9437 159.206 35.7814C159.303 35.6192 159.4 35.4569 159.496 35.2947C159.545 35.0784 159.593 34.8621 159.593 34.6457C159.593 34.4294 159.545 34.2131 159.496 33.9968C159.448 33.7804 159.351 33.6182 159.206 33.51C159.061 33.3478 158.964 33.2937 158.77 33.1855C158.625 33.1315 158.432 33.0774 158.238 33.0774C158.045 33.0774 157.851 33.1315 157.706 33.1855C157.561 33.2396 157.415 33.3478 157.27 33.51C157.173 33.6723 157.077 33.8345 156.98 33.9968C156.931 34.2131 156.883 34.4294 156.883 34.6457Z" fill="white"/>
<path d="M93.4376 29.7793H91.9375V31.4558H93.4376V29.7793Z" fill="white"/>
<path d="M101.714 29.7793H100.214V31.4558H101.714V29.7793Z" fill="white"/>
<path d="M149.092 29.7793H147.592V31.4558H149.092V29.7793Z" fill="white"/>
</g>
</svg>
