<svg width="222" height="78" viewBox="0 0 222 78" fill="none" xmlns="http://www.w3.org/2000/svg">
<path d="M119.62 73.4204C118.763 73.7371 117.852 73.8825 116.939 73.8484C113.645 73.8484 111.635 71.9508 111.635 69.0688C111.635 65.9585 114.016 64.0752 117.196 64.0752C118.075 64.0361 118.953 64.1769 119.777 64.489L119.363 65.9157C118.714 65.662 118.021 65.536 117.324 65.5448C116.848 65.4965 116.367 65.5522 115.915 65.7078C115.463 65.8635 115.049 66.1155 114.704 66.4464C114.358 66.7773 114.088 67.1793 113.913 67.6247C113.738 68.07 113.661 68.5481 113.688 69.026C113.662 69.4998 113.74 69.9735 113.916 70.4142C114.092 70.8549 114.361 71.252 114.706 71.5778C115.051 71.9037 115.462 72.1505 115.912 72.3012C116.362 72.4519 116.839 72.5027 117.31 72.4502C118.015 72.4603 118.716 72.3393 119.377 72.0935L119.62 73.4204Z" fill="#687369"/>
<path d="M121.203 64.2036H123.1V72.2362H127.377V73.6629H121.203V64.2036Z" fill="#687369"/>
<path d="M130.757 64.2036V73.6772H128.86V64.2036H130.757Z" fill="#687369"/>
<path d="M132.938 73.6914V64.2036H135.106L137.787 68.2698C138.445 69.2901 139.036 70.353 139.555 71.4515C139.441 70.1817 139.384 68.9547 139.384 67.5137V64.2036H141.166V73.6772H139.212L136.503 69.5111C135.813 68.4623 135.189 67.371 134.635 66.2439C134.635 67.4709 134.721 68.7264 134.721 70.2815V73.6629L132.938 73.6914Z" fill="#687369"/>
<path d="M145.272 64.2036V73.6772H143.376V64.2036H145.272Z" fill="#687369"/>
<path d="M154.897 73.4202C154.04 73.7354 153.129 73.8808 152.217 73.8482C148.923 73.8482 146.912 71.9506 146.912 69.0686C146.912 65.9583 149.293 64.075 152.459 64.075C153.324 64.044 154.187 64.1846 154.997 64.4888L154.569 65.9155C153.925 65.6618 153.237 65.5358 152.544 65.5445C152.067 65.4941 151.585 65.5481 151.131 65.7027C150.677 65.8574 150.262 66.1091 149.914 66.4402C149.567 66.7714 149.296 67.1742 149.12 67.6206C148.944 68.0671 148.867 68.5466 148.894 69.0258C148.868 69.5009 148.946 69.976 149.123 70.4178C149.299 70.8596 149.57 71.2575 149.917 71.5836C150.263 71.9098 150.676 72.1563 151.128 72.3059C151.579 72.4555 152.058 72.5047 152.53 72.45C153.231 72.4609 153.927 72.3399 154.584 72.0933L154.897 73.4202Z" fill="#687369"/>
<path d="M131.67 11.9561V21.4011H129.759V11.9561H131.67Z" fill="#687369"/>
<path d="M133.851 21.4011V11.9561H136.018L138.699 16.008C139.363 17.0251 139.954 18.0883 140.467 19.1896C140.353 17.9198 140.296 16.7071 140.296 15.2518V11.9561H142.064V21.4011H140.125L137.415 17.2207C136.725 16.1767 136.101 15.0902 135.547 13.9678C135.547 15.1805 135.633 16.436 135.633 17.9912V21.4011H133.851Z" fill="#687369"/>
<path d="M221.088 41.8749L220.917 42.1317C218.826 45.3232 216.296 48.2049 213.403 50.6922C211.35 52.5499 208.965 54.0022 206.373 54.9724C213.004 44.1577 217.78 36.8528 220.404 33.2574L220.732 32.8293H216.454L216.369 32.9435C214.943 34.998 212.604 38.522 209.581 43.4158C208.112 45.7203 206.426 47.8797 204.548 49.8646C202.252 52.3044 200.527 53.5456 199.415 53.5456C198.93 53.5456 198.388 53.4172 198.388 52.3757C198.641 50.9659 199.341 49.6751 200.384 48.6947C203.521 45.0423 205.133 43.1447 205.632 42.5169C207.315 40.6646 208.321 38.2954 208.483 35.797C208.483 33.1147 206.886 32.544 205.546 32.544C203.749 32.544 200.741 35.64 196.377 42.0033L196.192 42.2601C191.116 49.7933 187.408 53.6027 185.17 53.6027C184.457 53.6027 184.143 53.2746 184.143 52.5184C184.378 51.078 185.08 49.7547 186.139 48.7518C187.808 46.8114 189.59 44.7284 191.43 42.5312C193.126 40.6462 194.075 38.2052 194.096 35.6686C194.096 32.9863 192.556 32.4156 191.244 32.4156C189.319 32.4156 186.581 34.4844 182.903 38.7075C183.196 37.7554 183.345 36.7647 183.345 35.7684C183.345 33.0005 182.033 32.4156 180.935 32.4156C179.837 32.4156 178.169 33.4856 176.258 35.6971C175.516 36.653 174.019 38.7075 171.709 41.9462L171.609 42.0746C169.727 44.6856 167.959 45.9982 166.333 45.9982C166.083 46.0079 165.833 45.979 165.592 45.9126C168.444 41.4183 169.955 37.8515 169.955 35.2833C169.955 32.7152 168.643 32.3157 167.531 32.3157C164.38 32.3157 160.986 34.2704 157.464 38.0227C156.151 39.4101 154.998 40.9417 154.028 42.5883C149.166 49.722 145.558 53.3459 143.319 53.3459C142.663 53.3459 142.378 53.032 142.378 52.2616C142.613 50.8212 143.315 49.4978 144.374 48.495C147.569 44.7854 149.337 42.7024 149.636 42.3172C151.247 40.3935 152.197 38.0025 152.345 35.4973C152.345 32.9007 150.805 32.3442 149.493 32.3442C147.383 32.3442 144.688 34.3417 141.309 38.4507C141.599 37.5612 141.753 36.6328 141.765 35.6971C141.765 32.9292 140.339 32.3442 139.27 32.3442C137.402 32.3442 134.693 34.3988 131.014 38.6219C131.309 37.6751 131.458 36.6888 131.456 35.6971C131.456 32.9292 130.144 32.3442 129.046 32.3442C127.948 32.3442 126.28 33.4143 124.369 35.6258C123.613 36.6245 122.002 38.8217 119.735 42.0033C118.109 44.1862 117.097 44.657 116.541 44.657C115.985 44.657 114.744 44.657 114.744 42.0318C114.697 41.1613 114.884 40.2941 115.286 39.5208C118.623 37.1381 120.248 35.1549 120.248 33.4571C120.269 33.3108 120.258 33.1616 120.215 33.0203C120.171 32.879 120.097 32.749 119.998 32.6398C119.898 32.5306 119.776 32.4449 119.639 32.3889C119.502 32.3328 119.355 32.3078 119.207 32.3157C118.181 32.3157 117.168 33.0291 116.113 34.4986C115.185 35.7149 114.542 37.1239 114.231 38.6219C113.218 39.6349 112.334 40.4909 111.579 41.1615C112.459 39.454 112.983 37.5851 113.119 35.6686C113.119 32.9007 111.807 32.3157 110.694 32.3157C109.582 32.3157 107.928 33.3858 106.017 35.5972C105.276 36.5674 103.75 38.6504 101.383 41.9748L101.241 42.1602C96.4781 49.4509 92.9276 53.1604 90.7175 53.1604C90.0045 53.1604 89.6908 52.8323 89.6908 52.0904C89.7066 51.2065 89.9955 50.3493 90.5178 49.6364C95.8793 41.5039 99.715 35.8968 101.925 32.972L102.553 32.1445L101.597 32.5725C101.04 32.8158 100.437 32.9374 99.829 32.9292C99.3467 33.0049 98.8533 32.9658 98.3889 32.8151L98.175 32.6867L96.8489 34.7412C96.8493 34.4353 96.7875 34.1325 96.6672 33.8513C96.5469 33.5701 96.3707 33.3163 96.1492 33.1054C95.9278 32.8945 95.6658 32.7309 95.3791 32.6246C95.0925 32.5183 94.7872 32.4714 94.4819 32.4869C91.1595 32.4869 87.6375 34.3274 83.9872 37.9656C81.4536 40.2925 79.5753 43.2445 78.5402 46.5261C77.0261 48.3277 75.3298 49.9677 73.4782 51.4198C70.3007 54.0649 66.3307 55.5714 62.1993 55.7C61.5433 55.7 60.6022 55.7 59.3474 55.5573C58.7628 55.5573 58.2352 55.4717 57.7789 55.4432C63.0421 53.1341 67.8072 49.8247 71.8099 45.6986C75.3871 41.6918 78.4131 37.2246 80.8074 32.4156L88.4075 17.606C94.2537 6.8769 100.399 1.42674 106.645 1.42674C107.272 1.42674 107.272 1.65502 107.272 1.75489C107.272 1.85477 107.272 1.89757 106.859 2.32559C106.503 2.67624 106.298 3.15256 106.288 3.65246C106.288 4.86519 106.973 5.50723 108.256 5.50723C109.539 5.50723 110.937 4.97933 110.937 2.454C110.937 1.34114 110.352 0 107.543 0C100.799 0 93.8117 4.89373 86.7534 14.5242C82.3205 21.025 78.3056 27.8014 74.733 34.8125H59.1336C60.1602 32.7865 61.7715 28.9914 63.9531 23.5412C65.2087 20.1217 66.8243 16.8456 68.7727 13.7681C69.7691 14.5138 70.6444 15.4089 71.3679 16.4218L71.4392 16.4931C71.8242 16.7214 71.9382 16.75 72.0238 16.75C72.1093 16.75 72.5514 16.75 72.5514 16.0794C72.5578 15.8704 72.5239 15.6621 72.4516 15.4659V15.3803C71.3964 14.3388 70.4696 13.4684 69.5997 12.8121C70.3546 11.7963 71.189 10.8422 72.0951 9.95866C73.521 8.53192 74.9469 7.39053 76.216 6.2206C78.3834 4.13755 79.4385 2.65374 79.4385 1.69782C79.4556 1.57252 79.4447 1.44499 79.4067 1.32441C79.3686 1.20382 79.3043 1.09316 79.2184 1.0004C79.1325 0.907631 79.0272 0.835059 78.9099 0.787897C78.7926 0.740736 78.6664 0.720156 78.5402 0.727639C76.3015 0.727639 72.8366 4.29449 68.1881 11.6422C64.6648 8.90354 60.837 6.58157 56.7808 4.72252C51.6827 2.23123 46.1112 0.859425 40.4399 0.699104C31.2713 0.699104 24.655 3.28151 20.7908 8.36071C17.9404 8.51048 15.15 9.23767 12.5887 10.4982C10.0274 11.7588 7.74852 13.5264 5.89007 15.6942C2.02474 20.0439 -0.0757524 25.6824 0.00105798 31.5025C0.00105798 37.7659 2.38233 42.5027 7.13061 45.6558C7.92805 48.768 9.66593 51.5582 12.107 53.6455C15.0038 56.3294 18.8107 57.8132 22.7586 57.7973C30.0135 57.7407 37.1145 55.698 43.2917 51.8906C49.0121 48.5407 53.8286 43.8439 57.3227 38.2082C57.7654 37.6256 58.1477 36.9993 58.4634 36.3391H73.906C68.2024 47.0397 61.857 53.46 55.1268 55.5003L54.2284 55.7571C53.986 55.8284 53.8577 56.071 53.8577 56.4562C53.8577 56.5989 53.8577 57.0269 54.5706 57.0269H54.6847C55.5688 56.6131 56.9947 56.7273 59.3474 56.9128C60.6165 57.0126 61.5006 57.0554 61.9996 57.0554C67.5322 57.0554 72.9079 54.2733 78.0696 48.8374C78.0005 49.4532 77.9671 50.0725 77.9698 50.6922C77.9698 53.3602 78.9537 54.7156 80.8217 54.7156C82.2476 54.7156 83.8303 53.7168 85.9264 51.6338L88.3505 48.923C88.1375 49.7526 88.0321 50.6061 88.0368 51.4626C88.0368 54.1449 89.4627 54.7156 90.5321 54.7156C93.2271 54.7156 97.0913 50.8634 102.353 42.9449L102.481 42.7452C107.757 35.3404 109.81 33.7567 110.595 33.7567C111.022 33.7567 111.45 33.8709 111.45 34.7412C111.45 35.6115 110.68 37.3093 107.03 42.5883C104.606 46.0695 101.868 49.8932 98.8737 54.0022L98.3461 54.7298L99.1874 54.416C99.7936 54.2141 100.431 54.1223 101.07 54.1449C102.225 54.1449 102.495 54.3018 102.61 54.3731L102.838 54.5586L103.009 54.3161C105.504 50.6065 107.757 47.5105 109.682 45.0993C111.422 43.2446 112.734 41.9177 113.646 41.0902C113.579 41.4627 113.536 41.8392 113.518 42.2173C113.518 44.8282 114.53 46.1408 116.526 46.1408C117.767 46.1408 119.079 45.1849 120.505 43.2874L120.647 43.0876L120.79 42.9021C126.08 35.5259 128.148 33.9565 128.932 33.9565C129.36 33.9565 129.787 34.0706 129.787 34.9267C129.787 36.011 128.362 38.6362 125.367 42.7309C122.259 47.0112 119.435 50.9918 117.211 54.045L116.683 54.7584L117.525 54.4588C118.236 54.1421 119 53.9584 119.778 53.9166C120.206 53.8976 120.629 54.0123 120.99 54.2447L121.203 54.4017L121.36 54.1877C124.63 49.7267 127.696 45.5083 130.557 41.5325C134.322 36.3819 137.245 33.7853 139.27 33.7853C139.669 33.7853 140.111 33.8994 140.111 34.8553C140.111 35.426 139.312 37.2665 135.448 42.7595L127.634 53.8738L127.107 54.63L127.948 54.2875C128.631 54.028 129.357 53.9021 130.087 53.9166C130.585 53.8755 131.083 53.9901 131.513 54.2447L131.741 54.416L131.898 54.1877C135.833 48.3523 138.813 44.0863 140.724 41.4754C144.446 36.3677 147.397 33.7853 149.536 33.7853C150.121 33.7853 150.378 34.0421 150.378 34.6698C150.105 35.9715 149.438 37.1573 148.467 38.0655C146.585 40.3197 144.945 42.3457 143.476 44.1434C141.765 46.1916 140.809 48.7651 140.767 51.4341C140.767 54.1163 142.193 54.687 143.262 54.687C145.43 54.687 148.396 52.2473 152.203 47.325C151.965 48.3543 151.845 49.4074 151.846 50.4639C151.846 53.3174 152.859 54.7441 154.855 54.7441C157.707 54.7441 161.115 52.1617 164.836 47.0825C165.29 47.2735 165.771 47.3892 166.262 47.4249C168.401 47.4249 170.54 45.9982 172.479 43.1447L172.636 42.9164C177.997 35.3404 180.079 33.7425 180.878 33.7425C181.291 33.7425 181.733 33.8566 181.733 34.7269C181.733 35.5972 180.963 37.452 177.313 42.574C173.905 47.3536 171.153 51.1344 169.157 53.9879L168.629 54.7013L169.456 54.4017C170.17 54.1493 170.923 54.0238 171.681 54.0307C172.114 54.0097 172.542 54.1244 172.907 54.3589L173.121 54.5301L173.278 54.3018C176.538 49.8028 179.599 45.5654 182.461 41.5895C186.168 36.4818 189.105 33.8994 191.187 33.8994C191.772 33.8994 192.028 34.1562 192.028 34.784C191.756 36.0856 191.089 37.2714 190.118 38.1796C188.521 40.0915 186.881 42.146 185.213 44.2575C183.519 46.3155 182.565 48.8829 182.503 51.5482C182.503 54.2305 183.815 54.8012 184.913 54.8012C187.637 54.8012 191.572 51.006 196.919 43.2303L197.09 42.9592C202.138 35.3404 204.377 33.7425 205.361 33.7425C205.96 33.7425 206.216 34.0135 206.216 34.627C206.006 35.9604 205.365 37.1882 204.391 38.1226C202.68 40.0915 200.969 42.1745 199.315 44.3003C197.682 46.32 196.787 48.8364 196.777 51.4341C196.777 54.1163 198.089 54.687 199.186 54.687C200.826 54.687 202.979 53.2603 205.76 50.1643C204.334 52.447 203.108 54.6157 201.996 56.6131C197.594 58.6273 193.586 61.4101 190.16 64.8312C185.883 68.9687 183.63 72.4357 183.63 75.1322C183.63 77.5006 184.942 77.9857 186.04 77.9857C187.565 77.9857 189.576 76.773 192.2 74.3047C195.08 71.4778 197.643 68.3441 199.842 64.9596C201.981 61.7779 203.849 58.9815 205.375 56.6417C208.548 55.4956 211.493 53.7952 214.073 51.6195C217.022 49.0636 219.625 46.133 221.816 42.9021L221.944 42.7167L221.088 41.8749ZM162.997 44.5001C162.981 45.0912 163.167 45.67 163.524 46.1408C160.088 51.0203 157.193 53.4743 154.969 53.4743C154.042 53.4743 153.543 52.9892 153.543 51.9192C153.543 49.7933 155.511 46.2122 159.247 41.1901C162.983 36.1679 165.706 33.6854 167.488 33.6854C168.002 33.6854 168.686 33.8423 168.686 35.2405C168.375 37.5723 167.536 39.8023 166.234 41.7607C165.985 41.5542 165.673 41.4385 165.35 41.4326C164.252 41.3755 162.997 41.9605 162.997 44.5001ZM95.7509 35.0551C95.6351 36.313 95.1709 37.5136 94.4106 38.522C93.2699 40.2627 91.3021 43.0163 88.5929 46.7115C85.2705 51.1772 82.7181 53.4315 80.9785 53.4315C80.2085 53.4315 79.8378 53.0463 79.795 52.1617C79.795 49.4794 81.7913 45.6986 85.7411 40.919C89.6908 36.1394 92.6424 33.7853 94.5532 33.7853C95.3802 33.6854 95.7509 34.1134 95.7509 35.0551ZM34.3512 26.1522C27.7921 25.7242 23.3432 23.4128 21.1188 19.2753C24.2772 17.6041 27.7983 16.7368 31.3711 16.75C32.271 16.7458 33.169 16.8318 34.0518 17.0068C34.7946 18.509 35.1663 20.1677 35.1355 21.8434C35.075 23.3091 34.811 24.7593 34.3512 26.1522ZM36.319 26.1522H35.7771C36.1398 24.8079 36.322 23.4213 36.319 22.0289C36.347 20.4446 36.1059 18.867 35.606 17.3635C37.5179 17.7615 39.248 18.772 40.5345 20.242C41.821 21.712 42.5937 23.5614 42.7356 25.5102C40.6269 25.9612 38.4753 26.1813 36.319 26.1665V26.1522ZM43.9761 25.182C43.2917 19.9316 40.1404 16.5502 34.6222 15.1948C33.4728 13.1264 31.7892 11.4048 29.7474 10.2102C27.7055 9.01549 25.3805 8.39153 23.0152 8.40351C26.6513 5.06494 32.7114 3.36711 41.0673 3.36711C50.653 3.42203 59.9463 6.67559 67.4751 12.6124C59.5043 19.047 51.6048 23.2844 43.9761 25.1963V25.182ZM31.0431 14.6098C27.3083 14.557 23.6173 15.4191 20.2918 17.1209C20.1099 16.3691 20.0237 15.5973 20.0351 14.8239C20.0451 13.3232 20.4378 11.85 21.1758 10.5436H22.4591C24.3549 10.4311 26.2518 10.7442 28.0109 11.4601C29.7701 12.176 31.3469 13.2766 32.6259 14.6812L31.0431 14.6098ZM18.6092 14.6812C18.6115 15.6836 18.7457 16.6814 19.0084 17.6488C15.0007 19.9393 11.7381 23.3375 9.61169 27.4363C7.47873 31.3231 6.36052 35.6857 6.36062 40.12C6.37349 41.3159 6.48317 42.5087 6.68858 43.6869C4.93955 42.264 3.54574 40.453 2.61762 38.3976C1.68949 36.3421 1.25255 34.0986 1.34141 31.8449C1.28833 26.5892 3.19479 21.5023 6.68858 17.5775C9.94066 13.6973 14.5112 11.1567 19.5218 10.4438C18.9092 11.7767 18.5976 13.2283 18.6092 14.6954V14.6812ZM11.0946 28.6918C13.2526 25.115 16.2538 22.122 19.8355 19.9744C22.2595 24.6398 26.965 27.2508 33.8807 27.7073C33.2525 29.4828 32.2309 31.093 30.8925 32.4173C29.5541 33.7417 27.9335 34.7459 26.1523 35.3547C25.7374 35.4738 25.3127 35.555 24.8832 35.5972C24.6693 35.5972 24.156 35.7542 24.1702 36.5674C24.1845 37.3806 25.1969 37.1809 25.4963 37.1809H25.5819C27.8424 36.5189 29.9065 35.3134 31.5942 33.6695C33.2819 32.0256 34.5417 29.9933 35.2638 27.7501H35.6488C38.0442 27.7421 40.4326 27.4935 42.7784 27.0082C42.7316 29.9562 41.9968 32.8525 40.6327 35.4659C39.2685 38.0793 37.3128 40.3375 34.9216 42.0604C30.3875 45.6587 24.767 47.6104 18.9799 47.5961C14.1603 47.5961 10.5385 46.6259 8.2143 44.7426C7.88629 43.2149 7.74267 41.6534 7.78653 40.0915C7.81343 36.0584 8.95865 32.112 11.0946 28.6918ZM18.8801 48.8802C24.9646 48.866 30.8686 46.8114 35.6488 43.0448C41.3525 38.7646 44.2043 33.2859 44.2043 26.9226V26.6373C51.9687 24.5381 59.197 20.8076 65.4076 15.6942C59.8893 23.4984 55.5117 29.5478 52.389 33.7139C46.6854 42.0746 42.0226 47.8101 38.4864 50.8348C34.0066 54.5388 28.3554 56.5264 22.5447 56.4419C19.1146 56.4468 15.8017 55.193 13.2335 52.9179C11.1783 51.2635 9.61506 49.0777 8.71337 46.5974C11.8297 48.2749 15.3463 49.0645 18.8801 48.8802ZM201.054 58.6106C196.492 66.3578 192.841 71.5797 190.203 74.1763C188.549 75.7886 187.166 76.6018 186.097 76.6018C185.669 76.6018 185.17 76.4734 185.17 75.5175C185.17 73.1063 187.109 69.9532 190.873 66.1723C193.863 63.1481 197.296 60.5982 201.054 58.6106Z" fill="#687369"/>
</svg>
