<svg width="40" height="40" viewBox="0 0 40 40" fill="none" xmlns="http://www.w3.org/2000/svg">
<g opacity="0.5">
<path fill-rule="evenodd" clip-rule="evenodd" d="M40 20C40 31.0457 31.0457 40 20 40C8.95431 40 0 31.0457 0 20C0 8.95431 8.95431 0 20 0C31.0457 0 40 8.95431 40 20ZM20.6543 31.1271H20.6592C27.2162 31.1244 32.5492 25.7902 32.5518 19.2346C32.553 16.0569 31.3172 13.069 29.0718 10.8212C26.8265 8.57322 23.8405 7.33471 20.6591 7.33333C14.104 7.33333 8.76898 12.6681 8.76638 19.2252C8.76548 21.3212 9.31311 23.3671 10.3538 25.1707L8.66667 31.3333L14.9711 29.6795C16.7082 30.627 18.6639 31.1264 20.6543 31.1271Z" fill="white"/>
<path fill-rule="evenodd" clip-rule="evenodd" d="M15.6243 27.7406L15.2633 27.5263L11.5222 28.5077L12.5207 24.8601L12.2857 24.4861C11.2962 22.9124 10.7736 21.0934 10.7744 19.2257C10.7766 13.7757 15.2109 9.3418 20.6632 9.3418C23.3034 9.34271 25.7853 10.3722 27.6515 12.2406C29.5177 14.109 30.5449 16.5924 30.5439 19.2337C30.5417 24.684 26.1075 29.1184 20.6593 29.1184H20.6553C18.8816 29.1177 17.1419 28.6412 15.6243 27.7406ZM26.2438 21.7948C26.451 21.895 26.591 21.9626 26.6507 22.0624C26.725 22.1863 26.725 22.7812 26.4775 23.4755C26.2298 24.1696 25.0426 24.8031 24.4717 24.8884C23.9597 24.9649 23.3119 24.9968 22.6001 24.7706C22.1685 24.6337 21.615 24.4509 20.906 24.1447C18.1202 22.9418 16.2376 20.2418 15.8818 19.7315C15.8569 19.6957 15.8395 19.6707 15.8297 19.6577L15.8273 19.6545C15.6701 19.4447 14.6164 18.0388 14.6164 16.5837C14.6164 15.215 15.2887 14.4975 15.5982 14.1673C15.6194 14.1447 15.6389 14.1238 15.6564 14.1048C15.9288 13.8073 16.2507 13.7329 16.4488 13.7329C16.6469 13.7329 16.8452 13.7347 17.0183 13.7434C17.0397 13.7445 17.0619 13.7444 17.0849 13.7442C17.2581 13.7432 17.4739 13.7419 17.6869 14.2535C17.7689 14.4504 17.8887 14.7423 18.0152 15.0501C18.2709 15.6726 18.5534 16.3604 18.6031 16.4599C18.6774 16.6087 18.7269 16.7822 18.6279 16.9806C18.613 17.0103 18.5993 17.0384 18.5861 17.0652C18.5117 17.2171 18.457 17.3288 18.3307 17.4762C18.2811 17.5342 18.2298 17.5967 18.1785 17.6592C18.0762 17.7837 17.974 17.9082 17.885 17.9969C17.7362 18.145 17.5814 18.3058 17.7547 18.6033C17.928 18.9008 18.5244 19.8739 19.4078 20.6618C20.3574 21.5089 21.1827 21.8668 21.6011 22.0483C21.6828 22.0837 21.7489 22.1124 21.7975 22.1367C22.0945 22.2855 22.2679 22.2606 22.4412 22.0624C22.6146 21.8641 23.1841 21.1946 23.3821 20.8972C23.5802 20.5998 23.7784 20.6494 24.0507 20.7485C24.3232 20.8477 25.7841 21.5665 26.0813 21.7153C26.1393 21.7443 26.1935 21.7705 26.2438 21.7948Z" fill="white"/>
</g>
</svg>
